<?xml version="1.0" encoding="utf-8"?>
<!-- Generator: Adobe Illustrator 27.5.0, SVG Export Plug-In . SVG Version: 6.00 Build 0)  -->
<svg version="1.1" xmlns="http://www.w3.org/2000/svg" xmlns:xlink="http://www.w3.org/1999/xlink" x="0px" y="0px"
	 viewBox="0 0 2500 2500" style="enable-background:new 0 0 2500 2500;" xml:space="preserve">
<g id="BG">
	<rect style="fill:#FFFFFF;" width="2500" height="2500"/>
</g>
<g id="Design">
	<g>
		<ellipse style="opacity:0.16;fill:#81A000;" cx="1247.284" cy="1781.188" rx="958.257" ry="282.212"/>
		<g>
			<path style="fill:#90B700;" d="M2285.165,1496.444c-2.812-14.112-5.268-28.205-6.15-42.275
				c-3.276-52.225-15.41-95.828-39.506-143.178c-3.247-6.38-11.837-11.552-19.065-10.935c-27.881,2.38-55.752,4.854-83.657,6.945
				c-14.884,1.115-29.773,2.156-44.668,3.12c-4.205,0.273-12.698-0.609-18.395,0.235c6.233-24.673,11.969-49.865,20.093-73.934
				c2.854-8.457,5.961-16.859,11.125-24.248c1.872-2.679,8.595-8.225,6.238-8.582c22.207,3.372,44.398-17.918,30.946-40.254
				c-14.979-24.869-29.56-50.294-40.977-77.028c-11.401-26.695-18.602-54.938-29.408-81.854
				c-22.866-56.958-66.27-101.792-107.523-146.079c-39.815-42.743-80.763-89.478-130.184-121.395
				c-26.294-16.981-56.196-26.513-86.133-34.818c-29.646-8.224-59.354-16.282-89.231-23.63
				c-28.911-7.11-57.748-13.252-87.112-17.332c-62.29-16.032-126.146-24.983-190.997-23.116
				c-130.562,3.759-261.885,55.227-351.161,152.326c-22.367,24.327-42.276,51.328-57.96,80.444
				c-7.855,14.581-14.006,30.178-19.132,45.921c-3.547,10.892-7.252,22.211-8.692,33.665c-3.246,1.604-5.843,4.467-6.776,8.824
				c-2.332,10.889-24.14,6.061-32.194,5.41c-22.244-1.797-44.157-3.641-66.524-3.025c-46.609,1.283-90.024,11.558-134.668,23.636
				c-74.344,20.114-146.034,52.485-211.991,92.102c-127.07,76.325-232.561,187.063-293.254,323.359
				c-18.078,40.599-32.435,82.969-32.499,127.9c-0.057,40.492,8.613,81.8,22.225,119.834
				c25.202,70.422,67.403,134.785,124.509,183.436c65.841,56.093,146.166,85.011,228.082,109.01
				c91.07,26.681,183.95,41.326,277.036,15.594c43.501-12.025,85.095-30.32,125.815-49.56
				c38.977-18.416,78.122-36.962,114.859-59.619c36.044-22.23,58.133-49.332,86.358-80.975
				c14.431-16.178,38.96-32.869,51.555-50.506c6.117-8.566,12.111-17.239,17.714-26.15c2.583-4.108,5.075-8.273,7.598-12.418
				c0.138-0.226,0.72-1.028,1.35-1.941c12.65,5.271,42.406,0.216,51.968,3.732c7.177,11.225,24.731,39.485,33.756,49.309
				c14.771,16.077,29.976,31.885,46.838,45.78c35.295,29.087,72.72,55.602,112.246,78.633
				c77.923,45.404,163.828,78.646,252.301,96.318c100.579,20.09,193.544,3.6,287.458-42.17
				c42.16-20.547,90.929-31.062,126.192-61.775c34.604-30.138,60.804-65.93,89.724-101.707
				c33.969-42.025,64.129-94.516,72.033-148.715C2300.111,1561.934,2291.681,1529.14,2285.165,1496.444z"/>
			<path style="fill:#B8E207;" d="M1749.36,763.92c-3.936-4.52-8.334-8.663-12.961-12.376
				c-31.822-25.532-66.63-44.753-108.732-35.36c-22.886,5.106-50.235,17.116-70.855,33.945c-22.593,4.412-41.403,17.657-42.46,42.87
				c-0.666,15.873,5.801,32.375,16.355,45.283c6.173,13.672,16.505,25.999,29.459,35.672c33.07,24.692,78.213,36.011,119.092,35.165
				c38.036-0.787,83.278-11.123,101.361-48.609C1797.682,825.138,1780.702,784.672,1749.36,763.92z"/>
			<path style="fill:#B8E207;" d="M1505.631,761.729c-1.792-5.537-5.223-10.879-10.516-13.676c-1.822-0.769-3.644-1.538-5.466-2.307
				c-3.689-0.991-7.378-1.034-11.066-0.222c-1.527,0.225-3.035,0.522-4.529,0.968c-0.345,0.103-0.697,0.149-1.04,0.238
				c-3.261,0.41-6.35,1.45-9.262,3.139c-1.653,1.277-3.306,2.554-4.959,3.831c-5.694,5.227-7.732,13.191-6.739,20.583
				c0.893,6.65,3.906,11.88,9.219,15.985c5.893,4.553,14.01,6.812,21.36,4.386c8.495-2.804,16.259-7.13,20.692-15.293
				C1506.194,774.457,1507.411,767.229,1505.631,761.729z"/>
			<path style="fill:#B8E207;" d="M1852.791,831.817c-13.646,0-13.669,21.208,0,21.208
				C1866.437,853.025,1866.459,831.817,1852.791,831.817z"/>
			<path style="fill:#81A000;" d="M2072.056,1238.246c-1.125-7.3-11.568-9.151-16.179-4.271
				c-64.57,68.334-170.678,88.262-260.12,95.771c-89.442,7.509-179.826,7.429-269.43-0.072c-0.361-0.102-0.721-0.191-1.082-0.294
				c-19.545-5.605-39.177-11.416-58.399-18.066c-35.918-12.426-70.596-24.155-103.914-42.86
				c-30.931-17.365-59.207-37.283-83.518-63.287c-11.981-12.815-22.802-25.973-33.142-40.114
				c-10.713-14.651-24.28-26.703-34.687-41.754c-4.734-6.846-16.999-4.965-16.672,4.516c0.622,18.087,1.81,38.379,8.094,55.479
				c6.959,18.938,19.88,37.474,32.38,53.153c6.262,7.856,12.982,15.44,20.061,22.733c1.346,7.655,3.973,14.98,7.448,22.248
				c-1.845-0.714-3.692-1.42-5.531-2.166c-5.547-2.249-8.998,5.674-5.481,9.415c1.785,1.898,3.64,3.709,5.528,5.478
				c-1.079,2.53-1.187,5.606,0.245,8.757c22.083,48.592,32.346,97.516,11.349,148.662c-6.818,16.606,12.315,29.063,26.415,26.415
				c52.589-9.876,104.705-22.125,157.49-30.952c52.875-8.842,105.44-18.576,158.022-29.02
				c51.507-10.231,102.781-21.557,154.11-32.646c52.3-11.3,103.276-27.043,156.079-36.069c27.132-4.638,54.93-6.186,81.789-12.348
				c11.339-2.602,23.395-5.687,33.453-11.252c4.211,10.25,21.388,13.568,27.007-1.069
				C2074.065,1296.772,2076.588,1267.654,2072.056,1238.246z M2048.665,1283.865c-3.978-1.486-8.64-1.557-12.828,0.145
				c5.533-4.936,10.805-10.112,15.892-15.554C2050.999,1273.655,2049.962,1278.789,2048.665,1283.865z"/>
			<path style="fill:#81A000;" d="M979.721,946.948c-5.224-13.089-7.649-27.427-11.774-40.894c-1.933-6.312-9.945-5.611-12.142,0
				c-3.919,10.008-4.892,19.459-3.923,29.15c-3.512,0.193-6.861,1.965-8.745,5.287c-3.378,5.957-4.126,13.182-1.811,19.665
				c2.596,7.27,11.448,14.782,19.661,12.22c0.533-0.166,1.051-0.395,1.555-0.657c3.808,6.75,9.247,11.957,17.589,11.774
				c2.566-0.056,5.379-1.381,6.581-3.775C992.66,967.869,984.085,957.879,979.721,946.948z"/>
			<path style="fill:#81A000;" d="M1667.008,1941.028c-20.175-6.509-39.966-17.669-58.944-27.25
				c-17.505-8.838-34.89-18.156-52.085-27.582c-17.269-9.466-33.224-21.447-49.916-31.892
				c-17.399-10.888-34.16-22.779-50.855-34.708c-62.914-44.951-114.48-105.553-149.982-174.231
				c-9.643-18.654-17.407-38.087-24.142-57.963c-7.251-21.399-11.32-43.282-19.374-64.359c-2.397-6.273-12.189-7.547-14.059,0
				c-2.404,9.697-3.514,19.719-3.648,29.871c-1.071-0.229-2.157-0.339-3.235-0.328c0.087-1.914,0.134-3.834,0.091-5.764
				c-0.133-6.132-9.416-9.595-12.35-3.345c-6.861,14.619-10.882,30.137-17.001,45.07c-7.238,17.666-17.019,34.422-27.557,50.304
				c-9.398,14.164-19.845,25.934-31.721,38.022c-12.505,12.728-23.896,26.46-36.812,38.848
				c-27.47,26.347-58.707,46.856-90.495,67.586c-15.763,10.279-31.523,20.544-47.319,30.752
				c-39.184,20.631-79.94,38.204-122.191,52.074c-21.77,7.147-43.721,14.051-65.798,20.19c-11.248,3.128-22.635,5.888-33.92,8.955
				c-15.689,1.453-31.405,2.656-47.121,3.779c-74.27,5.306-149.428,1.463-220.906-20.648
				c-34.836-10.776-68.374-25.962-99.767-44.512c-16.3-9.631-32.447-20.28-47.814-31.351c-7.228-5.207-14.012-10.909-20.777-16.692
				c-7.367-6.297-16.069-10.18-24.406-15.202c-4.138-2.493-9.721,1.649-8.275,6.362c2.257,7.354,4.058,15.842,7.577,22.681
				c3.757,7.303,10.549,14.26,15.68,20.67c11.624,14.52,23.837,28.031,38.228,39.848c28.164,23.127,58.48,42.055,91.816,56.797
				c76.186,33.692,158.669,47.761,241.697,48.987c43.253,0.639,86.161-3.332,129.003-9.023
				c44.392-5.897,87.215-13.799,126.768-36.03c36.22-20.357,68.651-48.675,101.033-74.53c31.933-25.497,59.78-54.308,88.367-83.347
				c11.186-11.363,21.9-23.161,32.079-35.42c9.327-8.759,18.169-17.905,26.237-27.526c13.062-15.576,24.651-33.883,34.576-52.066
				c0.441,1.626,0.922,3.204,1.428,4.71c4.984,14.83,15.055,30.889,33.214,28.7c6.744-0.813,14.224-3.458,19.371-8.335
				c12.456,28.476,28.012,55.193,47.293,80.054c51.897,66.916,123.09,125.068,203.603,153.263
				c22.322,7.817,44.207,16.016,67.13,21.947c24.581,6.361,50.013,9.36,74.398,15.825
				C1668.199,1944.773,1669.03,1941.681,1667.008,1941.028z"/>
			<path style="fill:#81A000;" d="M1255.209,1361.239c-1.275-3.073-5.898-2.013-5.113,1.41c6.128,26.695,0.174,52.616,3.857,79.144
				c0.374,2.691,4.242,2.688,5.451,0.713C1274.177,1418.365,1265.295,1385.559,1255.209,1361.239z"/>
			<g>
				<path style="fill:#D8E217;" d="M1110.402,1126.119c-62.135-72.743-159.677-105.621-252.879-110.547
					c-152.783-8.076-316.72,54.677-425.312,165.528c-1.435,1.179-2.867,2.384-4.305,3.615
					c-18.544,15.882-36.187,32.856-53.131,50.427c-35.476,36.787-67.619,77.114-95.872,119.693
					c-28.07,42.302-54.309,89.418-62.162,140.231c-7.647,49.48,0.503,97.705,24.645,141.718
					c47.465,86.535,140.31,134.476,235.225,148.188c52.229,7.545,104.557,7.761,157.144,4.47
					c57.938-3.626,112.91-12.286,166.313-35.752c45.377-19.939,87.236-47.91,128.763-74.73
					c38.662-24.97,76.499-51.378,111.801-80.963c66.935-56.096,128.249-131.623,141.506-220.495
					C1195.623,1287.102,1169.874,1195.744,1110.402,1126.119z"/>
				<path style="fill:#DCE528;" d="M496.284,1218.002c-0.001,0.002-0.003,0.004-0.004,0.005c1.926-0.504,2.827-0.848,3.178-1.111
					C498.453,1217.33,497.399,1217.708,496.284,1218.002z"/>
			</g>
			<path style="fill:#D8E217;" d="M2219.089,1313.111c-6.773-12.197-23.506-16.208-35.363-9.272
				c-2.732,1.598-4.952,3.528-6.745,5.675c-4.739-0.835-9.839-0.833-15.124-0.099c-48.297,6.701-96.029,16.437-143.071,29.268
				c-10.386,2.833-16.745,9.173-19.772,16.714c-32.063,4.815-64.173,9.357-96.236,14.118
				c-94.146,13.979-188.402,27.368-282.445,42.023c-5.971,0.93-11.931,1.895-17.882,2.894
				c-32.179,3.513-64.043,11.367-95.435,20.706c-11.555,3.236-23.036,6.793-34.439,10.702c-20.478,2.008-40.962,3.965-61.447,5.861
				c-31.566,2.922-63.877,3.871-94.406,12.989c-16.734,4.998-18.694,30.952-1.166,36.055c24.4,43.273,49.242,86.186,80.558,124.891
				c32.411,40.058,64.331,81.729,104.69,114.228c38.373,30.9,81.173,56.371,124.533,79.592
				c44.292,23.72,91.025,44.723,140.187,55.944c50.089,11.433,101.715,12.738,151.474-1.109
				c46.997-13.079,93.534-34.361,137.322-55.707c41.665-20.311,81.547-46.926,110.958-83.231
				c28.09-34.674,47.758-74.5,60.404-117.243c13.759-46.505,20.066-95.135,21.978-143.514
				C2249.865,1418.807,2246.75,1362.923,2219.089,1313.111z"/>
			<path style="fill:#F7FFAE;" d="M1199.963,1188.321c-37.382-87.688-138.362-150.237-228.055-182.023
				c-44.524-15.779-93.718-21.773-140.716-17.013c-52.504,5.318-102.366,21.637-151.585,39.945
				c-179.49,66.768-364.16,170.293-440.461,356.344c-7.918,19.307-11.111,37.955-11.406,58.256
				c-1.652,4.968-3.213,9.963-4.632,14.994c-12.713,45.094-15.86,92.677-4.468,138.371
				c20.363,81.679,83.864,146.835,158.902,181.812c87.946,40.993,187.035,40.778,279.631,16.025
				c23.737-6.346,46.868-14.048,69.549-22.747c7.694,4.862,16.598,2.916,22.179-4.887c1.177-1.646,14.845,4.579,15.638,2.767
				c64.878-27.39,119.388-53.449,180.004-90.002c82.408-49.695,159.956-123.691,213.49-205.616
				C1212.898,1390.583,1238.289,1278.221,1199.963,1188.321z M614.922,1108.923c43.048-18.459,87.268-35.118,132.012-48.988
				c44.059-13.659,88.901-22.521,135.194-19.058c48.416,3.621,96.154,20.003,137.11,46.551c-9.922,3.186-19.65,10.8-27.869,15.56
				c-15.622,9.047-30.511,19.55-45.446,29.679c-29.674,20.125-56.738,42.525-83.618,66.23c-26.569,23.43-53.79,46.938-77.772,73.046
				c-11.752,12.795-23.499,25.641-34.814,38.827c-8.492,9.897-19.822,21.411-23.51,34.484c-0.828-0.522-1.665-1.033-2.528-1.513
				c-12.16-6.756-25.681-7.749-38.383-4.598c3.88-16.272-1.814-36.691-6.483-50.821c-7.845-23.742-15.689-47.484-23.533-71.225
				c-12.228-37.01-25.037-72.872-42.167-107.383C613.719,1109.453,614.319,1109.182,614.922,1108.923z M279.804,1402.715
				c8.423-19.228,18.116-37.846,29.165-55.7c11.893-19.218,25.274-37.372,39.795-54.585c22.33,11.073,47.824,16.946,72.118,21.906
				c26.351,5.381,52.717,10.714,79.002,16.408c25.63,5.552,51.415,10.842,76.81,17.389c11.931,3.077,23.533,3.847,35.728,5.45
				c12.483,1.642,23.456,5.27,35.852,1.853c3.775-1.04,5.429-5.407,3.565-8.762c-6.089-10.956-15.921-15.775-26.462-21.987
				c-10.473-6.172-20.722-12.456-32.293-16.29c-25.735-8.528-52.488-14.101-79.14-18.787c-26.548-4.668-53.169-8.939-79.775-13.264
				c-20.967-3.408-43.152-7.045-64.793-6.895c5.664-5.948,11.43-11.805,17.365-17.502c56.703-54.433,124.676-95.453,195.759-128.535
				c2.214,13.198,4.909,26.292,8.271,39.509c5.942,23.364,13.598,46.112,21.05,69.032c7.443,22.893,14.886,45.786,22.329,68.679
				c5.252,16.155,13.333,38.492,28.578,49.087c-1.023,0.74-2.034,1.497-3.015,2.293c-12.513,10.152-22.166,24.825-23.06,40.513
				c-3.072-0.107-6.164-0.184-9.263-0.314c-17.705-0.744-35.4-2-53.118-1.538c-35.429,0.922-70.859,1.508-106.282,2.613
				c-34.504,1.076-69.014,1.92-103.529,2.533c-17.77,0.315-35.45,1.913-53.174,3.161c-11.407,0.804-22.373,1.296-32.155,5.206
				C279.35,1403.691,279.585,1403.213,279.804,1402.715z M267.073,1431.244c11.706,10.19,25.837,11.078,41.414,11.842
				c17.706,0.869,35.445,2.1,53.175,1.826c36.38-0.56,72.759-1.523,109.125-2.67c27.715-0.874,55.393-2.401,83.065-4.111
				c-0.485,0.23-0.973,0.465-1.454,0.69c-33.988,15.909-67.572,32.683-100.715,50.285c-33.155,17.609-65.491,36.641-97.407,56.401
				c-31.58,19.552-59.932,42.925-87.972,67.156C243.589,1555.208,247.259,1489.869,267.073,1431.244z M280.825,1642.252
				c-1.922-3.221-3.717-6.488-5.442-9.78c0.669-0.183,1.337-0.435,1.996-0.761c32.952-16.309,66.126-31.728,98.005-50.091
				c32.521-18.733,65.566-36.569,98.71-54.172c32.372-17.193,65.167-33.591,98.345-49.172c16.594-7.793,33.354-15.193,50.049-22.758
				c13.266-6.011,26.262-12.881,36.254-23.212c5.195,3.201,10.953,5.579,16.93,7.128c-9.708,5.722-18.494,12.181-27.022,20.809
				c-12.118,12.26-23.939,24.814-35.841,37.281c-25.347,26.551-49.746,53.966-74.354,81.201
				c-48.686,53.882-98.373,107.028-145.366,162.397C347.284,1719.309,306.934,1686.014,280.825,1642.252z M459.183,1763.895
				c-6.615-1.483-13.204-3.187-19.746-5.104c44.899-48.186,88-98.115,131.787-147.298c23.806-26.739,47.857-53.263,70.924-80.642
				c11.749-13.945,23.398-27.983,35.387-41.724c3.125-3.581,5.985-7.188,8.689-10.835c-0.164,13.447,0.595,26.993,1.004,40.553
				c0.846,28.031,4.371,56.127,7.023,84.037c2.658,27.98,5.09,56.037,8.408,83.948c1.797,15.117,4.418,30.149,6.805,45.182
				c0.124,0.78,0.247,1.57,0.371,2.365C632.3,1767.071,541.276,1782.296,459.183,1763.895z M856.853,1654.684
				c-34.114,20.319-68.327,40.937-103.685,59.151c-0.801-10.88-1.612-21.76-2.848-32.598c-3.194-27.99-6.626-55.952-9.726-83.955
				c-3.11-28.099-5.273-56.419-9.628-84.356c-4.05-25.983-6.627-51.682-16.852-75.762c2.846-1.091,5.647-2.367,8.364-3.814
				c17.537,47.336,79.428,63.143,118.107,88.175c27.599,17.861,54.074,37.399,82.209,54.437c10.57,6.401,21.254,12.802,32.29,18.438
				C922.933,1615.426,889.852,1635.03,856.853,1654.684z M995.475,1566.757c-1.711-1.021-3.422-2.046-5.116-3.097
				c-13.291-8.238-27.127-15.552-40.483-23.698c-27.359-16.687-52.449-36.897-79.913-53.329
				c-32.741-19.588-70.566-29.698-101.579-50.823c22.344,11.563,49.227,15.37,74.025,14.841c34.512-0.737,69.18-5.281,103.538-8.406
				c35.55-3.235,71.032-8.267,106.46-12.643c17.602-2.174,34.699-5.571,51.938-9.734c9.711-2.346,19.4-4.429,28.672-7.568
				C1107.512,1476.114,1051.188,1526.609,995.475,1566.757z M1142.351,1382.677c-13.408-1.495-26.43,0.345-40.247,1.203
				c-15.702,0.973-31.42,1.133-47.076,2.713c-34.506,3.483-69.135,6.163-103.582,10.182c-32.993,3.849-65.836,9.266-98.915,12.357
				c-31.87,2.978-61.486,3.314-93.257-0.71c-2.764-0.35-5.165,0.854-6.922,2.786c-1.185-0.155-3.113-0.098-5.161-0.024
				c3.136-4.944,5.393-10.318,6.44-16.007c13.38-0.899,27.254-6.372,39.376-10.815c16.336-5.988,32.901-11.374,48.996-17.98
				c31.597-12.97,63.548-25.129,95.479-37.251c32-12.147,64.298-23.508,96.855-34.073c16.515-5.359,35.308-9.017,49.99-18.668
				c6.013-3.952,10.795-10.084,15.819-15.17c7.561-7.653,14.764-12.266,24.267-17.402c1.427-0.771,0.802-3.157-0.836-3.088
				c-9.452,0.402-18.027,0.988-27.226-1.303c-7.418-1.848-15.71-4.783-23.383-4.975c-17.567-0.439-35.429,7.423-51.809,12.808
				c-34.193,11.24-68.096,23.364-101.663,36.353c-33.033,12.782-65.39,27.146-97.438,42.215c-15.78,7.42-30.79,16.608-45.844,25.397
				c-8.856,5.17-18.668,11.083-26.776,18.331c-1.783-2.795-4.065-5.438-6.703-7.625c-0.572-0.936-1.176-1.853-1.809-2.752
				c11.171-3.769,20.341-12.906,29.333-20.508c13.936-11.783,27.297-24.283,41.162-36.161c27.03-23.155,52.592-48,79.464-71.362
				c26.21-22.786,52.682-44.918,78.142-68.541c13.259-12.302,27.092-24.051,40.088-36.622c8.442-8.166,21.064-16.558,25.69-27.716
				c21.202,15.805,40.189,34.486,55.957,55.671C1138.493,1218.072,1160.94,1304.059,1142.351,1382.677z"/>
			<path style="fill:#F7FFAE;" d="M2261.605,1506.982c-0.872-31.628-5.537-62.191-12.693-92.982
				c-7.26-31.239-12.129-63.331-17.725-94.926c-2.509-14.164-27.285-11.05-25.385,3.435c3.356,25.582,6.021,51.151,7.87,76.889
				c1.915,26.643-1.112,53.337-1.548,79.988c-0.392,24.011-2.152,48.169-5.771,72.018c-11.875-5.755-23.949-11.089-35.092-16.976
				c-30.288-16.001-60.368-32.484-90.884-48.046c-57.951-29.553-116.163-55.794-177.726-76.279
				c-2.831-20.45-16.374-33.976-34.365-41.572c-16.326,1.492-32.697,2.855-48.622,7.3c-27.44,7.659-53.83,18.543-81.203,26.343
				c-3.921,7.186-5.482,14.791-5.037,22.287c-2.964-1.295-6.896,15.688-9.266,18.97c-15.023,20.807-17.476,36.562-38.451,59.279
				c-21.974,23.799-45.592,53.104-65.688,78.505c-20.024,25.31-48.674,45.766-67.29,72.096
				c-11.917,16.855-25.208,32.53-35.247,49.666c-73.98-57.727-152.129-140.6-208.433-215.498
				c-6.424-8.546-15.981-13.101-26.483-8.677c-9.198,3.874-15.707,14.966-12.279,25.019
				c31.08,91.164,101.147,164.207,173.269,225.44c37.763,32.061,77.614,61.923,118.723,89.555
				c43.915,29.518,91.297,54.28,142.948,67.01c101.732,25.074,208.879,8.722,306.032-26.897
				c50.28-18.434,98.668-40.116,140.218-74.443c37.157-30.698,63.703-71.952,81.78-116.234
				C2254.232,1616.874,2263.132,1562.383,2261.605,1506.982z M1753.469,1820.661c-80.372-10.925-151.268-55.47-216.184-102.96
				c12.232-13.023,22.828-27.521,34.303-42.16c19.905-25.392,44.257-47.111,64.074-72.506c19.932-25.542,40.439-50.69,59.353-76.995
				c16.7-23.226,40.265-48.203,47.138-76.824c6.184,9.173,15.222,16.848,25.841,21.477c1.427,0.622,2.907,1.214,4.427,1.78
				c-2.306,28.085-3.392,55.863-2.802,84.336c0.74,35.683,1.48,71.367,2.22,107.05c0.722,34.798,2.303,69.477,4.125,104.233
				c0.977,18.635,1.892,36.886,5.284,55.264C1771.963,1822.792,1762.697,1821.915,1753.469,1820.661z M1841.745,1822.565
				c0.435-5.954-18.458-9.486-18.255-15.449c0.572-16.779,0.879-28.097,0-44.86c-1.825-34.816-3.487-67.795-6.409-102.537
				l-4.806-110.547c-1.29-15.341,9.629-31.263,7.358-46.29c0.741,0.853,1.435,1.66,2.058,2.406
				c11.947,14.305,14.701-15.913,25.831-0.976c23.871,32.037,75.044,94.269,96.128,128.171
				c21.874,35.172,56.191,93.954,81.709,126.569c7.357,9.402-17.443,11.431-9.388,20.348
				C1960.792,1801.14,1901.462,1817.635,1841.745,1822.565z M2191.479,1615.24c-12.138,37.242-32.158,72.028-60.657,99.144
				c-14.879,14.157-32.17,25.797-50.475,35.83c-0.456-0.492-0.9-0.969-1.425-1.555c-6.036-6.742-11.571-13.973-17.542-20.793
				c-11.022-12.591-21.507-25.629-31.483-39.061c-21.27-28.636-40.767-58.521-61.661-87.425
				c-21.408-29.615-43.178-59.094-66.982-86.845c-11.748-13.697-24.66-25.996-38.375-37.718c-1.209-1.033-2.411-2.079-3.613-3.127
				c16.804-5.721,30.946-15.529,38.366-30.345c21.007,16.387,42.287,32.48,65.272,45.985c31.049,18.243,62.234,36.767,94.069,53.597
				c30.852,16.31,61.63,32.767,92.565,48.918c13.004,6.789,28.06,14.195,43.507,18.383
				C2192.527,1611.9,2192.021,1613.576,2191.479,1615.24z"/>
			<path style="fill:#F7FFAE;" d="M836.182,1043.882c-23.068,2.334-37.668,25.519-48.762,43.335
				c-14.075,22.604-25.601,46.508-35.645,71.132c-10.865,26.637-21.369,53.426-32.024,80.148
				c-5.547,13.91-10.12,28.113-14.836,42.323c-4.34,13.077-7.719,27.799-3.883,41.397c1.556,5.515,8.146,8.322,13.143,5.347
				c22.72-13.526,33.213-46.888,42.71-70.127c10.432-25.528,20.381-51.259,30.652-76.853c8.876-22.118,17.262-44.619,27.583-66.114
				c9.416-19.609,28.03-41.805,27.026-64.623C842.016,1046.873,839.51,1043.545,836.182,1043.882z"/>
			<path style="fill:#FDFFCA;" d="M1244.039,1235.514c-5.401-23.52-13.547-47.211-28.33-66.518
				c-1.974-2.578-3.847-5.323-5.802-7.986c-10.352-25.278-24.246-49.06-42.283-69.181c-30.616-34.154-72.136-60.262-116.22-72.909
				c-52.373-15.025-108.321-23.218-162.585-27.211c-55.322-4.071-111.539-1.221-165.568,11.902
				c-49.304,11.976-97.245,31.32-142.936,53.194c-86.794,41.551-166.694,97.84-235.562,165.022
				c-39.125,38.167-76.232,80.211-106.666,125.718c-29.134,43.563-50.96,94.125-52.535,146.897
				c-5.713,27.148-2.543,57.043,2.329,83.324c7.509,40.504,24.399,79.742,49.484,112.448
				c34.705,45.249,79.337,79.911,131.036,99.735c0.777,3.187,2.634,6.105,5.783,7.941c38.45,22.432,79.337,30.535,123.077,36.251
				c42.1,5.501,85.388,5.074,127.629,1.434c86.243-7.432,170.633-30.001,248.783-67.28c38.445-18.339,75.144-40.359,109.25-65.888
				c38.344-28.702,71.649-64.244,104.498-98.931c61.965-65.434,129.556-136.476,154.265-225.561
				C1254.524,1331.631,1254.767,1282.229,1244.039,1235.514z M1074.306,1560.715c-58.434,62.396-123.85,116.771-199.872,156.598
				c-69.785,36.559-147.068,60.58-225.399,69.388c-26.526,2.983-53.207,4.35-79.882,4.18c-9.396-2.31-18.939-3.763-26.897-5.024
				c-21.096-3.342-41.983-2.454-63.222-1.653c-0.595,0.022-1.188,0.027-1.783,0.046c-28.056-3.557-55.987-7.729-84.2-10.109
				c-9.239-2.65-18.368-5.826-27.363-9.552c-74.021-30.665-127.184-92.145-147.396-169.539c-5.414-20.73-8.582-41.826-9.014-63.259
				c-0.305-15.131,0.519-30.217,0.388-45.286c7.653-40.414,28.046-77.755,51.578-111.23c26.266-37.363,54.167-73.108,85.576-106.322
				c61.63-65.172,133.23-120.443,211.754-163.782c84.64-46.714,174.841-80.59,272.548-80.966
				c52.068-0.2,103.762,6.418,154.717,16.786c45.573,9.273,89.909,18.79,123.427,53.148c31.995,32.796,54.788,76.523,65.92,120.738
				c6.817,27.074,9.842,55.072,11.489,82.897c1.667,28.163,1.094,58.155,11.037,84.772
				C1174.192,1451.425,1123.605,1508.074,1074.306,1560.715z"/>
			<path style="fill:#FDFFCA;" d="M631.639,1596.204c-4.633,4.65-10.165,9.007-10.935,15.917c-0.547,4.901,5.586,7.389,9.307,5.341
				c5.701-3.138,7.592-10.777,9.935-16.422C641.934,1596.252,634.886,1592.945,631.639,1596.204z"/>
			<path style="fill:#FDFFCA;" d="M643.823,1627.919l-2.681,14.084c-0.322,1.691,2.318,2.364,2.556,0.705
				c0.681-4.754,1.362-9.507,2.043-14.26C645.917,1627.212,644.066,1626.641,643.823,1627.919z"/>
			<path style="fill:#FDFFCA;" d="M419.665,1610.787c-2.518-1.274-4.864-2.023-7.612-0.971c-2.435,0.932-4.748,2.722-6.537,4.594
				c-3.608,3.778-5.648,8.573-5.901,13.777c-0.231,4.76,7.697,5.992,8.462,1.145c0.485-3.074,1.79-5.79,4.247-7.787
				c1.163-0.945,2.454-1.474,3.791-2.093c1.847-0.855,2.772-2.141,4.22-3.461C421.849,1614.61,421.523,1611.726,419.665,1610.787z"
				/>
			<path style="fill:#FDFFCA;" d="M451.097,1611.686c-3.903,4.765-7.805,9.53-11.707,14.294c-2.127,2.597,1.466,6.342,3.749,3.749
				c4.059-4.608,8.117-9.217,12.176-13.825C457.865,1613.007,453.509,1608.742,451.097,1611.686z"/>
			<path style="fill:#FDFFCA;" d="M366.776,1483.374c-3-0.693-5.842-1.495-8.947-1.078c-2.841,0.382-5.639,1.47-8.387,2.283
				c-4.816,1.426-8.332,6.817-6.712,11.821c1.471,4.544,6.803,8.657,11.821,6.712c2.703-1.048,5.428-2.051,8.098-3.178
				c3.047-1.286,4.837-3.709,6.867-6.177C372.301,1490.373,371.711,1484.514,366.776,1483.374z"/>
			<path style="fill:#FDFFCA;" d="M425.016,1341.449c-1.476-0.227-2.953-0.456-4.428-0.687c-3.917-0.612-7.425-0.643-10.979,1.436
				c-2.956,1.73-5.775,5.119-6.548,8.516c-0.831,3.647-0.651,7.742,1.436,10.98c0.743,0.961,1.485,1.923,2.228,2.884
				c1.778,1.766,3.874,2.987,6.288,3.664c1.386,0.557,2.769,1.121,4.155,1.68c7.872,3.174,17.434-1.791,19.668-9.902
				C439.068,1351.908,433.399,1342.74,425.016,1341.449z"/>
			<path style="fill:#FDFFCA;" d="M534.101,1245.386c-1.182-2.019-3.484-2.913-5.618-3.551c-3.316-0.991-6.642-0.994-10.031-0.533
				c-4.237,0.575-3.981,7.505,0,8.308c2.14,0.432,3.949,1.164,5.724,2.443c1.055,0.761,1.938,1.671,3.241,2.028
				c1.161,0.319,2.215,0.109,3.385-0.054c0.409-0.057,0.211-0.05,0.021-0.037c0.118-0.009,0.281-0.022,0.55-0.044
				c1.984-0.163,3.618-1.538,3.645-3.645C535.039,1248.662,534.946,1246.83,534.101,1245.386z"/>
			<path style="fill:#FDFFCA;" d="M567.754,1218.724c-2.42-3.788-6.26-5.833-10.344-7.329c-6.078-2.226-11.768,4.486-10.191,10.191
				c0.104,0.344,0.183,0.694,0.261,1.045c-0.037,1.487,0.078,3.013,0.46,4.447c0.142,0.756,0.419,1.468,0.761,2.161
				c0.038,0.117,0.068,0.212,0.132,0.396c0.112,0.381,0.197,0.768,0.281,1.156c0.458,5.464,4.664,10.696,10.597,10.43
				c5.883-0.263,10.47-4.668,10.628-10.627C570.44,1226.743,569.869,1222.035,567.754,1218.724z"/>
			<path style="fill:#FDFFCA;" d="M708.373,1136.698c-1.575-9.172-16.957-9.178-18.533,0c-0.864,5.031-2.414,10.54-2.204,15.636
				c0.262,6.36,4.237,13.664,11.471,13.664c6.945,0,10.829-6.765,11.395-12.847C711,1147.805,709.279,1141.976,708.373,1136.698z"/>
			<path style="fill:#FDFFCA;" d="M735.352,1124.369c-2.953-1.56-6.919-0.823-8.614,2.259c-0.968,1.76-1.936,3.52-2.904,5.279
				c-0.622,1.131-1.412,2.313-1.756,3.561c-0.335,1.216-0.293,2.537-0.261,3.785c0.103,3.937,4.834,7.461,8.477,4.864
				c0.97-0.691,2.03-1.339,2.851-2.207c0.975-1.03,1.405-2.158,1.971-3.409l2.495-5.518
				C738.964,1129.989,738.571,1126.069,735.352,1124.369z"/>
			<path style="fill:#FDFFCA;" d="M848.789,1163.857c-0.721-2.291-2.913-4.241-5.432-4.136c-6.148,0.256-8.196,5.563-11.1,10.201
				c-2.816,4.496-5.631,8.992-8.447,13.489c-3.317,5.297,4.843,11.933,8.847,6.827c3.258-4.155,6.516-8.31,9.774-12.464
				C845.667,1173.647,850.583,1169.554,848.789,1163.857z"/>
			<path style="fill:#FDFFCA;" d="M928.298,1232.267c-2.347-0.219-4.326-0.416-6.596,0.411c-2.312,0.842-4.262,2.656-6.178,4.171
				c-3.624,2.863-7.038,5.954-10.293,9.229c-3.851,3.874,1.28,11.149,6.023,7.807c3.592-2.531,7.298-4.879,11.157-6.982
				c1.905-1.038,4.016-1.849,5.667-3.269c1.759-1.513,2.594-3.357,3.652-5.382C933.212,1235.417,931.33,1232.549,928.298,1232.267z"
				/>
			<path style="fill:#FDFFCA;" d="M940.733,1250.072c-4.054-1.342-6.745-0.947-10.606,0.804c-3.446,1.562-6.513,3.65-9.444,6.026
				c-3.495,2.834,1.075,8.735,4.819,6.245c2.696-1.794,5.51-3.296,8.601-4.293c1.466-0.473,2.963-0.73,4.29-1.539
				c1.274-0.776,2.342-1.892,3.51-2.814C943.581,1253.18,942.426,1250.632,940.733,1250.072z"/>
			<path style="fill:#FDFFCA;" d="M997.18,1337.53c-2.468-1.904-5.653-1.927-8.129-0.47c0.004-0.034,0.009-0.068,0.013-0.102
				c-2.284,1.507-3.684,1.474-6.573,2.688c-1.202,0.505-2.667,0.954-4.589,0.877c-6.157-0.246-8.69,8.859-3.178,11.733
				c3.549,1.85,7.465,2.925,11.495,2.756c4.61-0.193,8.79-3.142,11.7-6.576C1000.734,1345.115,1000.848,1340.36,997.18,1337.53z"/>
			<path style="fill:#FDFFCA;" d="M980.659,1475.848c-0.657-4.37-4.282-7.84-8.86-7.823c-2.98,0.011-6-0.133-8.956,0.265
				c-2.897,0.389-5.812,1.968-8.523,3.055c-3.979,1.595-6.855,4.904-6.171,9.453c0.649,4.318,4.077,7.283,8.462,7.47
				c2.945,0.126,6.037,0.533,8.956,0.141c2.952-0.397,5.826-1.684,8.631-2.663C978.42,1484.272,981.352,1480.453,980.659,1475.848z"
				/>
			<path style="fill:#FDFFCA;" d="M798.656,1540.797c-4.602-5.427-9.457-11.44-16.519-13.378c-5.302-1.454-11.03,2.688-10.906,8.308
				c0.164,7.442,4.714,13.469,8.886,19.373c4.346,6.148,10.812,10.725,18.33,11.436c2.714,0.257,6.292-2.326,6.71-5.109
				C806.285,1553.926,803.578,1546.6,798.656,1540.797z"/>
			<path style="fill:#FDFFCA;" d="M775.009,1565.312c-2.055-4.356-5.054-8.271-8.541-11.576c-4.7-4.455-11.15,2.208-7.029,7.029
				c2.373,2.776,4.268,5.997,5.409,9.474c1.335,4.071,1.456,7.054,5.432,9.419c1.435,0.853,3.67,0.682,4.819-0.622
				C779,1574.61,777.303,1570.174,775.009,1565.312z"/>
			<path style="fill:#FDFFCA;" d="M1563.225,1514.911c-4.609-0.095-8.802,1.943-12.096,5.543c-2.373,2.594-4.428,5.591-6.612,8.347
				c-3.329,4.204-4.41,10.479,0,14.528c4.491,4.122,10.012,3.576,14.527,0c2.758-2.184,5.753-4.238,8.347-6.612
				c3.601-3.294,5.641-7.483,5.544-12.097C1574.884,1518.271,1569.585,1512.958,1563.225,1514.911z"/>
			<path style="fill:#FDFFCA;" d="M1541.31,1491.089c-4.719-1.429-9.87,0.977-12.887,4.566c-2.485,2.955-4.402,6.231-5.237,10.041
				c-0.888,4.054,1.215,8.794,5.555,9.783c4.477,1.02,8.267-1.359,9.783-5.555c0.012-0.033,0.011-0.038,0.022-0.067
				c0.032-0.048,0.045-0.062,0.085-0.124c0.238-0.374,0.483-0.764,0.7-1.151c0.404-0.412,0.801-0.81,1.221-1.207
				c0.147-0.124,0.295-0.249,0.442-0.373c-0.201,0.151-0.353,0.268-0.483,0.368c0.275-0.605,1.731-1.136,2.32-1.767
				c1.008-1.082,2.254-2.357,2.903-3.641C1547.916,1497.647,1546.086,1492.536,1541.31,1491.089z"/>
			<path style="fill:#FDFFCA;" d="M1749.979,1624.494c-2.873-2.217-7.432-2.223-10.007,0.596
				c-7.133,7.809-14.077,14.923-18.601,24.628c-2.05,4.397-1.605,9.499,2.511,12.575c3.631,2.713,9.588,2.979,12.799-0.762
				c3.367-3.924,6.982-8.251,9.139-12.965c2.148-4.694,4.084-9.498,6.123-14.24
				C1753.463,1630.789,1753.233,1627.005,1749.979,1624.494z"/>
			<path style="fill:#FDFFCA;" d="M1677.703,1622.111c-3.006,4.814-6.011,9.628-9.017,14.442
				c-2.955,4.733-5.867,12.223,0.299,15.917c5.887,3.527,10.916-2.318,13.396-6.973c2.796-5.249,5.279-10.694,7.911-16.028
				C1694.422,1621.106,1682.719,1614.078,1677.703,1622.111z"/>
			<path style="fill:#FDFFCA;" d="M1875.467,1697.714c-2.515-6.352-11.345-3.965-10.225,2.819
				c0.912,5.527,1.043,12.226,3.673,17.205c1.069,2.024,3.439,3.256,5.679,3.257c1.23,0,2.263-0.263,3.319-0.898
				c1.909-1.146,3.383-3.381,3.257-5.679C1880.858,1708.747,1877.548,1702.969,1875.467,1697.714z"/>
			<path style="fill:#FDFFCA;" d="M2023.281,1607.148c-2.859-2.222-5.963-2.73-9.239-4.113c-3.056-1.29-5.909-3.028-8.612-4.937
				c-4.082-2.884-8.551,3.359-5.22,6.766c4.642,4.748,12.183,11.651,19.19,11.654
				C2023.728,1616.519,2027.205,1610.197,2023.281,1607.148z"/>
			<path style="fill:#FDFFCA;" d="M2034.928,1580.776c-2.878-1.186-5.653-0.393-8.65-0.459c-2.761-0.061-5.342-0.729-7.918-1.695
				c-5.29-1.983-8.753,6.459-3.83,9.085c6.389,3.408,16.508,6.773,22.591,1.377
				C2040.22,1586.335,2038.094,1582.081,2034.928,1580.776z"/>
			<path style="fill:#FDFFCA;" d="M2099.254,1404.301c-4.788-4.078-9.171-3.628-15.119-2.981
				c-5.814,0.632-11.628,1.265-17.442,1.897c-6.806,0.74-6.82,9.862,0,10.604c5.814,0.632,11.628,1.265,17.442,1.897
				c5.948,0.647,10.331,1.096,15.119-2.982C2101.574,1410.761,2101.568,1406.271,2099.254,1404.301z"/>
			<path style="fill:#FDFFCA;" d="M2082.274,1362.651c-5.945-0.841-10.716,1.632-16.266,3.639
				c-5.769,2.086-11.538,4.172-17.306,6.258c-6.331,2.29-3.878,11.995,2.819,10.225c5.913-1.563,11.826-3.125,17.74-4.688
				c5.486-1.449,11.248-2.062,15.5-6.019C2087.6,1369.423,2086.524,1363.252,2082.274,1362.651z"/>
			<path style="fill:#648400;" d="M2030.664,1068.983c7.083-6.798-0.563-16.133-8.705-14.954
				c-19.712,2.855-33.17,11.366-44.958,27.317c-12.393,16.77-20.426,37.265-23.112,57.913c-3.67,28.211-9.508,95.981,33.743,94.784
				c4.823-0.134,8.963-3.991,8.947-8.947c-0.019-5.968,1.354-11.553,0.47-17.527c-0.92-6.212-3.241-11.905-3.821-18.216
				c-1.352-14.713-0.742-29.985,0.985-44.632C1997.605,1115.97,2009.558,1089.243,2030.664,1068.983z"/>
			<path style="fill:#648400;" d="M2061.87,1160.163c0.962,2.426,0.019,0.13-0.294-1.123c-0.067-0.268-0.124-0.419-0.174-0.5
				c0.017-0.175,0.034-0.354,0.052-0.578c0.089-1.077,0.23-2.303,0.201-3.379c0.09-2.373-0.398-4.589-1.435-6.655
				c0.462-0.747,1.206-1.75,1.276-1.85c5.363-7.686-3.578-19.121-12.349-16.064c-11.933,4.16-22.939,13.034-23.564,27.1
				c-0.671,15.097,6.702,30.946,23.405,31.905c9.146,0.525,14.586-7.624,15.578-15.578
				C2065.159,1168.698,2063.585,1164.486,2061.87,1160.163z"/>
			<path style="fill:#648400;" d="M2071.925,1206.069c-8.102,0-8.116,12.592,0,12.592
				C2080.027,1218.661,2080.041,1206.069,2071.925,1206.069z"/>
			<path style="fill:#648400;" d="M1331.411,1447.572c-2.648-8.109-10.975-11.767-18.736-15.498
				c-7.022-3.375-14.702-8.013-20.654-13.042c-12.94-10.935-32.481,2.609-23.94,18.472c2.405,4.466,5.134,8.505,8.238,12.159
				c-0.815,0.002-1.645,0.037-2.519,0.151c-6.239,0.812-9.649,7.374-5.155,12.445c1.772,2.001,3.408,3.706,5.817,4.909
				c2.355,1.176,4.981,2.011,7.427,2.985c5.639,2.246,9.795,3.923,15.709,1.185c1.917-0.888,2.987-2.509,3.46-4.338
				c9.039,3.392,19.468,4.592,26.192-2.273C1333.837,1461.742,1334.428,1453.268,1331.411,1447.572z"/>
			<path style="fill:#648400;" d="M2061.128,1273.916c-2.44,1.784-5.166,3.317-7.155,5.602c-1.972,2.264-3.51,4.895-5.502,7.169
				c-4.04,4.613-8.123,9.3-12.354,13.74c-5.15,5.404,1.302,12.816,7.63,9.889c6.781-3.138,12.099-6.855,16.989-12.552
				c2.236-2.605,4.642-5.405,6.421-8.351c1.944-3.22,2.138-6.958,2.449-10.633
				C2069.946,1274.73,2064.475,1271.469,2061.128,1273.916z"/>
			<path style="fill:#648400;" d="M1251.143,1640.216c-2.735-5.72-11.073-8.826-16.985-6.912
				c-5.803,1.878-11.815,7.84-11.042,14.503c0.767,6.619,1.773,12.632,5.487,18.336c1.868,2.869,3.851,5.76,6.562,7.854
				c3.626,2.802,7.819,3.675,12.314,4.015c7.386,0.558,13.03-6.558,13.309-13.309
				C1261.181,1655.192,1255.034,1648.355,1251.143,1640.216z"/>
			<path style="fill:#648400;" d="M931.195,1866.826c-19.873,9.018-41.622,15.612-62.379,22.362
				c-22.224,7.227-45.073,13.411-67.708,19.207c-46.639,11.941-94.401,21.541-141.839,29.429c-6.788,1.129-6.49,12.057,0,13.42
				c27.191,5.712,51.209,6.46,78.851,3.41c25.335-2.796,49.888-8.296,74.436-15.079c23.123-6.39,45.553-14.012,67.323-24.144
				c22.938-10.675,39.376-23.648,55.33-43.4C937.603,1869.068,934.702,1865.235,931.195,1866.826z"/>
			<path style="fill:#648400;" d="M1014.409,1825.282c-2.985,0-2.99,4.639,0,4.639
				C1017.394,1829.922,1017.399,1825.282,1014.409,1825.282z"/>
			<path style="fill:#648400;" d="M1548.108,1041.186c-7.249,0-7.261,11.267,0,11.267
				C1555.358,1052.452,1555.37,1041.186,1548.108,1041.186z"/>
			<path style="fill:#648400;" d="M1333.146,1023.558c-7.676,0-7.689,11.929,0,11.929
				C1340.822,1035.488,1340.835,1023.558,1333.146,1023.558z"/>
			<path style="fill:#648400;" d="M1293.613,768.249c-5.544,0-5.553,8.616,0,8.616
				C1299.157,776.865,1299.166,768.249,1293.613,768.249z"/>
			<path style="fill:#648400;" d="M1165.002,827.043c-0.902-0.746-1.803-1.491-2.705-2.237c-0.626-0.517-1.268-0.874-2.109-0.874
				c-0.731,0-1.605,0.325-2.109,0.874c-0.522,0.568-0.909,1.315-0.874,2.109c0.037,0.832,0.344,1.469,0.874,2.109
				c0.745,0.902,1.491,1.803,2.236,2.705c0.511,0.618,1.574,0.971,2.343,0.971c0.813,0,1.783-0.361,2.343-0.971
				c0.58-0.631,1.01-1.461,0.971-2.343C1165.935,828.556,1165.669,827.594,1165.002,827.043z"/>
			<path style="fill:#648400;" d="M1091.005,889.168c-2.559,0-2.563,3.976,0,3.976
				C1093.563,893.145,1093.568,889.168,1091.005,889.168z"/>
			<path style="fill:#648400;" d="M1184.896,954.224c-4.691,0-4.699,7.29,0,7.29
				C1189.587,961.514,1189.595,954.224,1184.896,954.224z"/>
			<path style="fill:#648400;" d="M1283.73,860.181c-1.706,0-1.709,2.651,0,2.651
				C1285.435,862.832,1285.438,860.181,1283.73,860.181z"/>
			<path style="fill:#648400;" d="M1181.138,811.255c-0.853,0-0.854,1.326,0,1.326
				C1181.99,812.581,1181.992,811.255,1181.138,811.255z"/>
			<path style="fill:#648400;" d="M1100.023,781.898c-3.838,0-3.844,5.965,0,5.965
				C1103.861,787.862,1103.868,781.898,1100.023,781.898z"/>
			<path style="fill:#648400;" d="M1035.132,889.387c-4.691,0-4.699,7.29,0,7.29C1039.822,896.677,1039.83,889.387,1035.132,889.387
				z"/>
			<path style="fill:#648400;" d="M1121.654,977.566c-2.559,0-2.563,3.977,0,3.977
				C1124.212,981.543,1124.217,977.566,1121.654,977.566z"/>
			<path style="fill:#648400;" d="M1202.768,1078.655c-4.691,0-4.699,7.29,0,7.29
				C1207.459,1085.945,1207.467,1078.655,1202.768,1078.655z"/>
			<path style="fill:#648400;" d="M1327.144,1143.877c-4.264,0-4.271,6.627,0,6.627
				C1331.408,1150.505,1331.415,1143.877,1327.144,1143.877z"/>
			<path style="fill:#648400;" d="M1419.073,1237.795c-1.706,0-1.708,2.651,0,2.651
				C1420.779,1240.446,1420.782,1237.795,1419.073,1237.795z"/>
			<path style="fill:#648400;" d="M1559.672,1185.15c-6.823,0-6.834,10.604,0,10.604
				C1566.495,1195.754,1566.506,1185.15,1559.672,1185.15z"/>
			<path style="fill:#648400;" d="M1440.704,1310.189c-5.97,0-5.98,9.278,0,9.278
				C1446.674,1319.467,1446.684,1310.189,1440.704,1310.189z"/>
			<path style="fill:#648400;" d="M1360.19,1376.207c-0.843-1.555-1.588-3.382-2.836-4.652c-1.689-1.717-4.653-1.72-6.344,0
				c-1.253,1.273-1.992,3.092-2.837,4.652c-2.491,4.597,0.605,10.471,6.009,10.471
				C1359.586,1386.678,1362.681,1380.804,1360.19,1376.207z"/>
			<path style="fill:#648400;" d="M1310.921,1251.699c-4.691,0-4.699,7.29,0,7.29
				C1315.611,1258.989,1315.619,1251.699,1310.921,1251.699z"/>
			<path style="fill:#648400;" d="M1413.666,1393.954c-3.605-0.221-7.21-0.442-10.815-0.663c-3.411-0.209-3.417,5.511,0,5.302
				c3.605-0.221,7.21-0.442,10.815-0.663C1416.222,1397.774,1416.226,1394.111,1413.666,1393.954z"/>
			<path style="fill:#648400;" d="M1575.895,1357.948c-0.182,0-0.182,0.282,0,0.282
				C1576.077,1358.23,1576.077,1357.948,1575.895,1357.948z"/>
			<path style="fill:#648400;" d="M1628.078,1205.706c-0.639-3.429-1.278-6.858-1.917-10.287c-0.295-1.581-2.901-1.582-3.195,0
				c-0.639,3.429-1.278,6.858-1.917,10.287C1619.953,1211.583,1629.18,1211.62,1628.078,1205.706z"/>
			<path style="fill:#648400;" d="M1456.927,1004.273c-2.985,0-2.99,4.639,0,4.639
				C1459.912,1008.912,1459.917,1004.273,1456.927,1004.273z"/>
			<path style="fill:#648400;" d="M1451.519,1122.91c-1.803-0.11-3.605-0.221-5.408-0.331c-3.837-0.235-3.844,6.2,0,5.965
				c1.802-0.11,3.605-0.221,5.408-0.331C1454.927,1128.003,1454.933,1123.119,1451.519,1122.91z"/>
			<path style="fill:#648400;" d="M1435.296,907.93c-1.706,0-1.708,2.651,0,2.651C1437.002,910.581,1437.005,907.93,1435.296,907.93
				z"/>
			<path style="fill:#648400;" d="M1440.704,769.094c-6.397,0-6.407,9.941,0,9.941
				C1447.1,779.035,1447.111,769.094,1440.704,769.094z"/>
			<path style="fill:#648400;" d="M1327.144,834.317c-5.97,0-5.98,9.278,0,9.278
				C1333.114,843.595,1333.124,834.317,1327.144,834.317z"/>
			<path style="fill:#648400;" d="M1429.889,926.909c-5.117,0-5.126,7.953,0,7.953
				C1435.006,934.862,1435.014,926.909,1429.889,926.909z"/>
			<path style="fill:#648400;" d="M1759.754,1014.094c-4.265,0-4.272,6.627,0,6.627
				C1764.018,1020.722,1764.026,1014.094,1759.754,1014.094z"/>
			<path style="fill:#648400;" d="M1873.314,997.871c-4.264,0-4.271,6.627,0,6.627
				C1877.579,1004.499,1877.586,997.871,1873.314,997.871z"/>
			<path style="fill:#648400;" d="M1894.945,906.273c-3.838,0-3.844,5.965,0,5.965
				C1898.783,912.238,1898.789,906.273,1894.945,906.273z"/>
			<path style="fill:#648400;" d="M1959.836,1058.018c-3.411,0-3.417,5.302,0,5.302
				C1963.248,1063.32,1963.254,1058.018,1959.836,1058.018z"/>
			<path style="fill:#648400;" d="M1873.314,1194.64c-8.529,0-8.543,13.255,0,13.255
				C1881.843,1207.895,1881.857,1194.64,1873.314,1194.64z"/>
			<path style="fill:#648400;" d="M1694.863,1214.282c-11.088,0-11.106,17.231,0,17.231
				C1705.95,1231.514,1705.968,1214.282,1694.863,1214.282z"/>
			<path style="fill:#648400;" d="M1743.531,1027.666c-7.676,0-7.689,11.929,0,11.929
				C1751.207,1039.596,1751.22,1027.666,1743.531,1027.666z"/>
			<path style="fill:#648400;" d="M1867.907,1103.789c-0.182,0-0.182,0.283,0,0.283
				C1868.089,1104.072,1868.089,1103.789,1867.907,1103.789z"/>
			<path style="fill:#648400;" d="M1808.423,1266.265c-6.823,0-6.835,10.604,0,10.604
				C1815.246,1276.868,1815.257,1266.265,1808.423,1266.265z"/>
			<path style="fill:#648400;" d="M1949.021,1251.036c-5.544,0-5.553,8.616,0,8.616
				C1954.565,1259.652,1954.574,1251.036,1949.021,1251.036z"/>
			<path style="fill:#648400;" d="M1797.608,1314.271c-7.676,0-7.689,11.929,0,11.929
				C1805.283,1326.2,1805.296,1314.271,1797.608,1314.271z"/>
			<path style="fill:#648400;" d="M1667.824,1293.966c-5.97,0-5.98,9.278,0,9.278
				C1673.795,1303.244,1673.804,1293.966,1667.824,1293.966z"/>
			<path style="fill:#648400;" d="M1581.302,1374.17c-0.182,0-0.182,0.283,0,0.283
				C1581.484,1374.453,1581.484,1374.17,1581.302,1374.17z"/>
			<path style="fill:#648400;" d="M1451.519,1309.526c-6.823,0-6.834,10.604,0,10.604
				C1458.342,1320.13,1458.354,1309.526,1451.519,1309.526z"/>
			<path style="fill:#648400;" d="M1473.15,1204.793c-9.382,0-9.397,14.58,0,14.58
				C1482.531,1219.373,1482.547,1204.793,1473.15,1204.793z"/>
			<path style="fill:#648400;" d="M1570.487,973.59c-7.676,0-7.689,11.929,0,11.929
				C1578.163,985.519,1578.176,973.59,1570.487,973.59z"/>
			<path style="fill:#648400;" d="M1765.162,950.86c-2.132,0-2.136,3.314,0,3.314C1767.294,954.173,1767.297,950.86,1765.162,950.86
				z"/>
			<path style="fill:#648400;" d="M1716.493,877.909c-5.544,0-5.553,8.616,0,8.616
				C1722.037,886.525,1722.046,877.909,1716.493,877.909z"/>
			<path style="fill:#648400;" d="M1543.449,766.337c-2.985,0-2.99,4.639,0,4.639
				C1546.434,770.977,1546.439,766.337,1543.449,766.337z"/>
			<path style="fill:#648400;" d="M1381.66,756.244c-1.685-0.426-3.37-0.852-5.055-1.278c-1.875-0.474-3.775,0.918-3.775,2.876
				c0,1.951,1.9,3.35,3.775,2.876c1.685-0.426,3.37-0.852,5.055-1.278C1383.238,759.041,1383.239,756.643,1381.66,756.244z"/>
			<path style="fill:#648400;" d="M1548.856,690.962c-2.559,0-2.563,3.976,0,3.976
				C1551.415,694.938,1551.419,690.962,1548.856,690.962z"/>
			<path style="fill:#648400;" d="M1581.302,821.739c-1.279,0-1.281,1.988,0,1.988
				C1582.582,823.727,1582.584,821.739,1581.302,821.739z"/>
			<path style="fill:#648400;" d="M1667.824,919.929c-0.182,0-0.182,0.283,0,0.283
				C1668.006,920.212,1668.007,919.929,1667.824,919.929z"/>
			<path style="fill:#648400;" d="M1733.421,755.286c-1.626-0.639-3.253-1.278-4.879-1.917c-2.864-1.125-5.872,1.7-5.872,4.473
				c0,2.783,3.015,5.596,5.872,4.474c1.626-0.639,3.253-1.278,4.879-1.917C1735.923,759.415,1735.928,756.271,1733.421,755.286z"/>
			<path style="fill:#648400;" d="M1824.646,843.37c-1.279,0-1.281,1.988,0,1.988C1825.925,845.358,1825.927,843.37,1824.646,843.37
				z"/>
			<path style="fill:#648400;" d="M1916.575,1006.451c-0.182,0-0.182,0.283,0,0.283
				C1916.757,1006.734,1916.758,1006.451,1916.575,1006.451z"/>
			<path style="fill:#648400;" d="M1705.678,963.438c-6.823,0-6.834,10.604,0,10.604
				C1712.501,974.041,1712.512,963.438,1705.678,963.438z"/>
			<path style="fill:#648400;" d="M1608.34,847.226c-10.235,0-10.252,15.906,0,15.906
				C1618.575,863.132,1618.592,847.226,1608.34,847.226z"/>
			<path style="fill:#648400;" d="M1337.959,977.341c-9.808,0-9.824,15.243,0,15.243
				C1347.767,992.584,1347.783,977.341,1337.959,977.341z"/>
			<path style="fill:#648400;" d="M1467.742,978.997c-7.676,0-7.689,11.929,0,11.929
				C1475.418,990.927,1475.431,978.997,1467.742,978.997z"/>
			<path style="fill:#648400;" d="M1473.15,1159.106c-5.544,0-5.553,8.616,0,8.616
				C1478.693,1167.722,1478.703,1159.106,1473.15,1159.106z"/>
			<path style="fill:#648400;" d="M1191.953,965.2c-11.514,0-11.533,17.894,0,17.894
				C1203.467,983.094,1203.486,965.2,1191.953,965.2z"/>
			<path style="fill:#648400;" d="M1100.023,906.604c-3.412,0-3.417,5.302,0,5.302
				C1103.435,911.906,1103.44,906.604,1100.023,906.604z"/>
			<path style="fill:#648400;" d="M1089.208,1634.315c-6.397,0-6.407,9.941,0,9.941
				C1095.604,1644.256,1095.615,1634.315,1089.208,1634.315z"/>
			<path style="fill:#648400;" d="M986.463,1758.028c-7.25,0-7.262,11.266,0,11.266
				C993.712,1769.294,993.724,1758.028,986.463,1758.028z"/>
			<path style="fill:#648400;" d="M1040.539,1777.233c-3.411,0-3.417,5.302,0,5.302
				C1043.951,1782.535,1043.956,1777.233,1040.539,1777.233z"/>
			<path style="fill:#648400;" d="M1094.615,1645.462c-5.97,0-5.98,9.278,0,9.278
				C1100.586,1654.74,1100.596,1645.462,1094.615,1645.462z"/>
			<path style="fill:#648400;" d="M1186.545,1561.365c-9.808,0-9.824,15.243,0,15.243
				C1196.353,1576.608,1196.37,1561.365,1186.545,1561.365z"/>
			<path style="fill:#648400;" d="M1051.354,1753.283c-2.407,0-3.909,1.408-4.505,3.165c-5.909,1.666-11.819,3.332-17.728,4.998
				c-2.475,0.698-1.435,4.38,1.057,3.834c5.81-1.271,11.621-2.542,17.432-3.813c0.796,1.039,2.035,1.757,3.745,1.757
				C1057.751,1763.224,1057.762,1753.283,1051.354,1753.283z"/>
			<path style="fill:#648400;" d="M1121.121,1707.22c-3.767,1.191-7.535,2.381-11.302,3.572c-2.837,0.897-4.404,3.901-3.221,6.708
				c1.047,2.485,4.607,4.18,7.051,2.377c3.256-2.402,6.513-4.804,9.77-7.206C1125.944,1710.809,1124.6,1706.12,1121.121,1707.22z"/>
			<path style="fill:#648400;" d="M851.272,1801.726c-13.646,0-13.669,21.208,0,21.208
				C864.918,1822.933,864.941,1801.726,851.272,1801.726z"/>
			<path style="fill:#648400;" d="M674.676,1886.181c-2.192-2.387-5.53-3.242-8.629-2.825c-2.892,0.388-6.238,2.056-7.505,4.904
				c-0.358,0.804-0.719,1.606-1.073,2.412c-0.594,1.352-1.061,2.689-0.577,4.182c0.182,0.564,0.467,1.109,0.706,1.653
				c0.17,0.387,0.343,0.772,0.515,1.158c0.542,1.218,0.89,1.898,2.035,3.044c1.863,1.863,4.63,3.009,7.264,3.009
				c2.783,0,5.254-1.164,7.264-3.009c2.017-1.851,2.89-4.607,3.009-7.263C677.808,1890.709,676.473,1888.138,674.676,1886.181z"/>
			<path style="fill:#648400;" d="M483.553,1860.442c-7.676,0-7.689,11.929,0,11.929
				C491.229,1872.371,491.242,1860.442,483.553,1860.442z"/>
			<path style="fill:#648400;" d="M705.266,1890.236c-11.088,0-11.106,17.231,0,17.231
				C716.354,1907.468,716.372,1890.236,705.266,1890.236z"/>
			<path style="fill:#648400;" d="M813.419,1886.485c-8.955,0-8.97,13.918,0,13.918
				C822.374,1900.403,822.389,1886.485,813.419,1886.485z"/>
			<path style="fill:#648400;" d="M1375.812,1711.016c-3.605-0.331-7.21-0.663-10.815-0.994c-6.392-0.588-6.404,10.53,0,9.941
				c3.605-0.331,7.21-0.663,10.815-0.994C1380.92,1718.499,1380.93,1711.487,1375.812,1711.016z"/>
			<path style="fill:#648400;" d="M1446.728,1799.278c-1.685-0.426-3.37-0.852-5.055-1.278c-2.292-0.579-4.614,1.121-4.614,3.515
				c0,2.385,2.322,4.094,4.614,3.515c1.685-0.426,3.37-0.852,5.055-1.279C1448.937,1803.193,1448.939,1799.837,1446.728,1799.278z"
				/>
			<path style="fill:#648400;" d="M1392.035,1774.251c-7.25,0-7.261,11.267,0,11.267
				C1399.285,1785.517,1399.297,1774.251,1392.035,1774.251z"/>
			<path style="fill:#648400;" d="M1267.66,1624.162c-5.544,0-5.553,8.616,0,8.616
				C1273.203,1632.778,1273.213,1624.162,1267.66,1624.162z"/>
			<path style="fill:#648400;" d="M1467.742,1815.855c-9.382,0-9.397,14.58,0,14.58
				C1477.124,1830.435,1477.139,1815.855,1467.742,1815.855z"/>
			<path style="fill:#648400;" d="M1321.736,1306.543c-10.661,0-10.679,16.569,0,16.569
				C1332.397,1323.112,1332.415,1306.543,1321.736,1306.543z"/>
			<path style="fill:#648400;" d="M1500.188,1181.837c-11.087,0-11.106,17.231,0,17.231
				C1511.275,1199.068,1511.294,1181.837,1500.188,1181.837z"/>
			<path style="fill:#648400;" d="M1673.232,1264.608c-8.955,0-8.97,13.917,0,13.917
				C1682.187,1278.525,1682.202,1264.608,1673.232,1264.608z"/>
			<g>
				<path style="fill:#7C3537;" d="M1250.493,1485.652c-2.754,6.608-5.884,13.361-7.01,20.458
					c-1.232,7.769-2.188,15.591-2.821,23.431c-1.168,14.449-1.23,28.89,0.022,43.332c2.527,29.164,8.797,57.959,18.644,85.525
					c19.223,53.815,53.609,102.28,93.7,142.571c79.835,80.235,186.423,133.598,296.803,156.377
					c55.799,11.516,113.051,15.292,169.862,10.831c29.087-2.284,58.291-6.27,86.582-13.493
					c31.419-8.021,62.137-18.528,92.524-29.789c53.557-19.846,107.789-40.601,152.071-77.75
					c44.727-37.523,73.945-89.113,101.198-139.818c14.236-26.486,28.906-53.159,38.262-81.852
					c9.739-29.866,12.27-62.222,9.614-93.431c-2.772-32.569-7.627-64.933-13.05-97.153c-2.65-15.739-5.667-31.416-9.048-47.015
					c-3.367-15.531-6.56-31.374-11.55-46.475c-5.025-15.209-10.419-30.29-16.131-45.254c-1.349-3.534-6.637-2.221-5.752,1.586
					c3.624,15.59,6.915,31.254,9.824,46.993c2.837,15.349,6.812,30.497,9.853,45.815c6.091,30.688,10.792,61.562,13.476,92.737
					c1.335,15.504,2.358,31.046,2.925,46.598c0.579,15.876,1.361,31.799,0.408,47.676c-1.796,29.935-11.278,58.238-24.066,85.178
					c-12.292,25.896-25.748,51.435-39.768,76.436c-13.676,24.388-28.618,48.449-47.066,69.557
					c-36.841,42.153-87.428,67.893-139.16,87.09c-27.863,10.34-56.827,18.428-85.584,25.865
					c-28.644,7.408-57.767,13.222-87.057,17.427c-53.801,7.725-108.696,7.057-162.538,0.159
					c-106.857-13.69-211.854-57.179-294.752-126.37c-41.423-34.574-77.459-75.762-102.974-123.483
					c-26.572-49.698-41.864-105.351-41.8-161.843c0.007-6.557,0.237-13.113,0.7-19.654c0.503-7.114-0.372-14.33-0.485-21.473
					C1256.295,1482.851,1251.726,1482.695,1250.493,1485.652L1250.493,1485.652z"/>
				<path style="fill:#7C3537;" d="M1263.597,1498.088c10.491,54.897,39.227,105.013,71.102,150.229
					c32.182,45.652,69.809,87.269,110.363,125.602c20.385,19.269,41.52,37.747,63.174,55.576
					c23.206,19.106,46.946,37.779,72.56,53.585c26.257,16.202,54.408,28.493,84.177,36.623
					c30.652,8.371,62.311,13.029,93.862,16.422c37.4,4.022,75.069,5.549,112.671,4.536c18.036-0.486,36.458-0.828,54.283-3.761
					c18.776-3.09,37.43-6.864,55.946-11.246c0.713-0.169,0.579-1.368-0.176-1.302c-16.419,1.44-32.872,2.416-49.348,2.872
					c-16.21,0.449-32.34,1.743-48.543,2.416c-32.792,1.362-65.666,0.792-98.392-1.695c-61.978-4.709-126.216-13.921-181.569-43.846
					c-26.482-14.317-50.848-32.197-74.297-50.986c-21.599-17.306-42.688-35.263-63.085-53.973
					c-40.916-37.531-79.309-78.158-112.327-122.866c-36.397-49.283-63.061-103.56-89.191-158.697
					C1264.468,1496.859,1263.464,1497.395,1263.597,1498.088L1263.597,1498.088z"/>
				<path style="fill:#7C3537;" d="M1262.858,1486.089c3.006,0.485,6.205,1.392,9.254,1.46c3.412,0.076,6.999-1.01,10.343-1.605
					c8.117-1.445,16.238-2.873,24.362-4.283c15.517-2.694,30.868-5.682,46.253-9.053c30.642-6.714,61.339-13.172,92.088-19.376
					c61.498-12.408,123.201-23.795,185.077-34.156c16.917-2.833,33.7-6.188,50.531-9.489c8.764-1.719,17.531-3.417,26.303-5.094
					c8.168-1.562,17.646-1.823,24.35-6.96c2.319-1.777,2.029-4.995-0.792-6.057c-6.847-2.578-13.671-0.827-20.821-0.004
					c-8.121,0.935-16.24,1.887-24.357,2.857c-15.506,1.853-31.121,3.401-46.533,5.926c-30.955,5.071-61.859,10.471-92.719,16.091
					c-61.722,11.24-123.257,23.503-184.572,36.785c-16.804,3.64-33.556,7.228-50.108,11.893c-8.618,2.429-17.23,4.879-25.837,7.349
					c-4.288,1.231-8.694,2.267-12.908,3.721c-3.943,1.361-7.028,3.944-10.389,6.361
					C1261.166,1483.33,1260.997,1485.788,1262.858,1486.089L1262.858,1486.089z"/>
				<path style="fill:#7C3537;" d="M1755.973,1394.655c15.277-1.876,30.737-3.189,45.834-6.209
					c14.934-2.987,29.868-5.974,44.802-8.961c30.988-6.198,61.976-12.397,92.964-18.595
					c61.209-12.243,122.636-23.711,183.665-36.822c17.108-3.675,34.216-7.351,51.323-11.026c8.554-1.838,17.108-3.675,25.662-5.513
					c8.781-1.886,17.638-3.239,25.869-6.885c6.26-2.774,2.788-12.341-3.345-12.35c-7.549-0.011-14.774,1.948-22.14,3.482
					c-8.196,1.707-16.392,3.414-24.588,5.12c-14.902,3.103-29.804,6.207-44.706,9.31c-30.528,6.358-60.927,13.326-91.362,20.117
					c-60.862,13.58-121.723,27.16-182.585,40.739c-17.071,3.809-34.142,7.618-51.213,11.427
					c-17.094,3.814-33.693,9.118-50.444,14.215C1754.69,1393.013,1754.816,1394.798,1755.973,1394.655L1755.973,1394.655z"/>
				<path style="fill:#7C3537;" d="M397.554,1155.987c26.36-19.521,52.746-39.04,80.072-57.199
					c27.323-18.157,54.695-36.185,84.056-50.934c31.001-15.573,63.733-27.102,96.887-37.141
					c32.972-9.985,66.325-18.853,100.14-25.503c65.561-12.894,132.758-16.992,198.193-1.226
					c26.518,6.389,52.469,15.52,77.127,27.183c24.629,11.65,47.444,26.233,70.174,41.158c25.447,16.709,47.178,37.532,71.177,56.053
					c12.739,9.831,21.945,23.761,30.961,37.012c8.685,12.765,16.582,26.037,23.703,39.735c1.178,2.267,4.648,0.253,3.433-2.007
					c-13.476-25.074-30.008-47.245-47.624-69.468c-3.719-4.692-6.313-10.382-9.667-15.38c-4.12-6.141-8.344-11.845-13.435-17.218
					c-9.815-10.359-20.168-20.208-31.001-29.498c-10.456-8.966-21.334-18.153-33.049-25.434
					c-12.148-7.55-24.658-14.503-37.511-20.78c-25.276-12.344-51.75-22.3-79.042-29.148c-63.415-15.91-130.499-15.037-194.803-5.208
					c-35.163,5.375-69.848,13.556-104.071,23.193c-33.705,9.491-67.248,19.986-99.472,33.769
					c-34.505,14.759-68.031,33.653-98.44,55.674c-30.704,22.235-59.643,46.91-88.611,71.326
					C396.183,1155.425,396.947,1156.437,397.554,1155.987L397.554,1155.987z"/>
				<path style="fill:#7C3537;" d="M1254.66,1282.313c2.479,7.688,5.327,15.692,6.7,23.669c1.412,8.198,0.439,17.15,0.422,25.437
					c-0.033,16.309,2.159,32.517,1.861,48.887c-0.15,8.234-1.13,16.414-1.385,24.626c-0.252,8.114,1.109,16.406,1.273,24.556
					c0.333,16.516,0.235,33.398-1.974,49.778c-0.266,1.974,2.647,3.82,3.634,1.532c6.611-15.326,12.839-30.553,16.984-46.752
					c2.232-8.721,5.052-18.059,5.685-27.063c0.591-8.414-0.521-17.278-1.315-25.651c-1.589-16.766-3.166-35.243-9.459-50.976
					c-3.067-7.669-6.87-14.855-10.546-22.233c-4.132-8.293-6.451-17.733-9.964-26.337
					C1256.108,1280.635,1254.257,1281.064,1254.66,1282.313L1254.66,1282.313z"/>
				<path style="fill:#7C3537;" d="M312.807,1232.097c-44.877,42.434-82.745,91.404-112.592,145.477
					c-15.429,27.953-27.996,57.56-33.818,89.083c-5.608,30.368-5.642,61.505-1.529,92.058
					c7.748,57.551,26.508,113.624,56.788,163.265c27.676,45.371,62.65,86.391,102.749,121.241
					c40.332,35.052,84.519,65.836,133.35,87.82c54.92,24.724,114.651,41.537,174.834,46.133
					c62.264,4.755,124.288-1.364,185.072-15.224c30.117-6.867,59.598-16.115,88.37-27.337c26.78-10.445,53.335-22.134,77.594-37.629
					c23.314-14.891,47.232-28.781,69.816-44.826c22.766-16.174,44.591-33.711,65.272-52.477
					c41.108-37.303,79.116-79.706,107.395-127.615c3.359-5.691,6.821-11.386,9.864-17.255c3.267-6.3,5.297-13.282,7.57-19.989
					c1.486-4.383-4.674-7.859-7.754-4.514c-4.425,4.806-9.305,9.348-13.274,14.543c-4.408,5.77-8.51,11.784-12.883,17.584
					c-8.029,10.649-16.529,20.914-24.511,31.597c-16.06,21.494-33.579,41.759-51.834,61.405
					c-36.534,39.316-77.73,74.369-122.624,103.793c-11.431,7.492-22.874,14.325-35.243,20.14
					c-12.01,5.646-24.014,11.289-36.035,16.913c-26.279,12.293-53.45,22.48-81.294,30.626
					c-57.674,16.873-117.339,24.105-177.395,22.619c-58.84-1.456-117.549-10.493-173.504-29.186
					c-48.289-16.132-94.761-39.661-136.88-68.855c-41.312-28.635-78.122-65.181-108.285-105.337
					c-15.615-20.788-28.684-42.847-41.61-65.345c-14.134-24.599-25.869-50.696-34.726-77.647
					c-19.228-58.513-21.703-122.243-0.404-180.565c10.788-29.539,26.229-57.381,43.073-83.859
					c16.446-25.854,34.837-50.572,54.847-73.776c9.625-11.162,19.669-21.949,30.068-32.394
					C313.578,1232.262,313.117,1231.804,312.807,1232.097L312.807,1232.097z"/>
				<path style="fill:#7C3537;" d="M948.157,961.563c5.096-20.781,12.882-40.206,20.532-60.105
					c7.078-18.411,16.07-36.093,26.484-52.837c21.405-34.417,48.896-62.878,80.04-88.53c31.93-26.3,66.766-47.944,104.713-64.478
					c38.729-16.875,79.766-28.703,121.319-36.15c103.058-18.469,208.606-4.127,310.166,17.047
					c100.143,20.879,197.357,57.641,278.279,121.464c36.239,28.582,67.322,62.667,93.915,100.355
					c13.631,19.318,25.946,39.494,37.102,60.334c5.445,10.171,10.907,20.31,15.902,30.714c5.007,10.43,9.147,21.063,15.369,30.82
					c6.114,9.587,11.933,19.304,17.654,29.129c2.928,5.029,12.473,3.288,11.732-3.178c-1.383-12.075-3.286-24.029-5.701-35.937
					c-2.544-12.544-8.35-24.048-13.875-35.553c-10.269-21.383-22.126-41.734-35.49-61.329
					c-13.771-20.192-28.824-39.568-44.988-57.901c-15.885-18.016-33.218-34.356-50.573-50.91
					c-34.909-33.298-74.139-62.183-116.465-85.352c-49.208-26.936-102.944-44.044-157.541-56.232
					c-57.735-12.889-116.774-20.679-175.545-27.078c-51.07-5.561-102.18-6.42-153.178,0.229
					c-86.557,11.285-171.791,41.206-243.782,91.151c-34.623,24.02-64.795,54.349-89.39,88.555
					c-11.883,16.526-22.288,34.116-30.948,52.539c-4.597,9.778-8.758,19.781-12.42,29.947c-3.614,10.035-5.673,20.788-7.581,31.268
					c-1.861,10.22-3.236,20.528-4.191,30.872C939.246,965.286,947.016,966.219,948.157,961.563L948.157,961.563z"/>
				<path style="fill:#7C3537;" d="M2035.186,1058.039c-27.99,13.014-45.223,41.989-50.966,71.506
					c-3.607,18.538-1.295,36.922,2.949,55.188c2.284,9.83,5.344,19.397,8.795,28.874c3.22,8.843,5.504,18.784,12.847,25.006
					c1.764,1.495,4.982,1.166,5.538-1.462c1.884-8.892-1.459-16.736-3.623-25.37c-2.101-8.384-3.949-16.839-5.583-25.326
					c-3.243-16.853-3.965-34.031-3.296-51.158c1.079-27.598,12.988-55.89,37.017-70.962
					C2042.9,1061.803,2039.39,1056.084,2035.186,1058.039L2035.186,1058.039z"/>
				<path style="fill:#7C3537;" d="M2054.692,1116.655c-5.773,9.867-9.437,20.609-10.891,31.943
					c-0.697,5.438-1.523,11.557,0.142,16.864c1.628,5.189,4.207,9.884,7.749,13.973c1.848,2.133,6.174,1.143,6.646-1.755
					c0.665-4.074,1.015-8.118,1.463-12.218c0.545-4.983-0.141-9.807-0.042-14.821c0.186-9.438,2.378-18.746,6.378-27.296
					C2069.696,1115.738,2059.074,1109.167,2054.692,1116.655L2054.692,1116.655z"/>
				<path style="fill:#7C3537;" d="M2082.279,1121.746c9.196,10.505,18.375,21.026,27.589,31.514
					c6.106,6.951,16.945,15.347,14.608,25.839c-1.77,7.946-10.57,14.791-18.424,15.835c-10.968,1.458-21.438-4.542-28.796-12.167
					c-4.577-4.743-13.43,1.636-9.368,7.228c8.609,11.853,21.076,20.659,35.954,22.061c15.222,1.434,29.796-6.513,36.149-20.538
					c6.846-15.112,1.404-29.688-9.632-41.077c-12.522-12.923-27.688-23.765-41.52-35.255
					C2084.269,1111.388,2078.301,1117.202,2082.279,1121.746L2082.279,1121.746z"/>
				<path style="fill:#7C3537;" d="M2080.375,1058.777c0.513,6.539,1.026,13.078,1.539,19.616c0.517,6.584,2.817,12.07,5.145,18.23
					c0.911,2.41,5.266,3.227,5.752,0c0.927-6.155,2.275-12.042,1.449-18.23c-0.873-6.539-1.746-13.078-2.619-19.616
					C2090.712,1051.809,2079.796,1051.397,2080.375,1058.777L2080.375,1058.777z"/>
				<path style="fill:#7C3537;" d="M2072.129,1223.676c-1.467,6.309-3.858,12.406-4.896,18.781
					c-1.12,6.873-2.654,13.651-4.723,20.303c-1.994,6.41-4.003,12.527-5.608,19.049c-1.662,6.752-2.502,13.351-3.599,20.201
					c-0.715,4.464,4.089,10.186,8.762,6.736c6.359-4.695,11.699-9.205,16.076-15.868c4.621-7.033,7.569-13.96,9.532-22.149
					c1.809-7.547,2.994-15.279,3.728-23.003c0.777-8.183-1.171-16.176-3.295-24.051
					C2086.028,1215.973,2074.008,1215.597,2072.129,1223.676L2072.129,1223.676z"/>
				<path style="fill:#7C3537;" d="M1223.955,1672.488c9.245,3.718,23.475,12.808,33.229,6.835c3.083-1.888,3.744-5.48,2.259-8.614
					c-4.758-10.037-22.1-10.354-31.612-12.28C1218.469,1656.532,1215.353,1669.028,1223.955,1672.488L1223.955,1672.488z"/>
				<path style="fill:#7C3537;" d="M251.565,1739.57c33.754,26.363,70.74,48.79,110.346,65.18
					c39.964,16.538,81.993,28.186,124.65,35.251c85.604,14.178,174.074,9.482,256.705-17.536
					c46.066-15.062,90.368-35.607,130.827-62.353c3.539-2.34,0.245-8.065-3.345-5.723c-35.683,23.288-74.365,42.367-114.927,55.513
					c-40.39,13.09-82.577,21.37-124.794,25.715c-84.787,8.727-171.367-1.5-251.204-31.584
					c-44.702-16.844-87.724-38.796-126.651-66.545C251.959,1736.624,250.377,1738.642,251.565,1739.57L251.565,1739.57z"/>
				<path style="fill:#7C3537;" d="M922.477,1732.098c19.441-8,37.936-17.972,55.458-29.582
					c17.758-11.766,33.324-26.632,48.356-41.657c15.304-15.297,29.828-31.352,44.083-47.624
					c15.803-18.039,31.564-35.968,47.798-53.621c8.821-9.592,17.551-19.268,26.186-29.028c8.137-9.198,19.811-19.033,23.168-31.201
					c0.789-2.859-2.359-5.095-4.868-3.742c-9.52,5.132-15.353,15.707-21.757,24.066c-7.273,9.493-14.636,18.916-22.08,28.276
					c-14.768,18.57-29.93,36.374-46.376,53.479c-14.752,15.343-29.701,30.513-45.281,45.021
					c-15.363,14.305-31.768,26.98-47.987,40.238c-18.508,15.13-37.741,28.875-58.998,39.924
					C917.241,1728.174,919.316,1733.399,922.477,1732.098L922.477,1732.098z"/>
				<path style="fill:#7C3537;" d="M1182.532,1467.368c23.425-31.582,40.604-67.446,54.464-104.117
					c13.114-34.697,25.254-74.146,10.387-110.211c-1.731-4.2-8.391-2.7-7.03,1.938c10.602,36.131-0.757,73.722-13.696,107.612
					c-13.506,35.377-30.045,69.408-45.842,103.774C1180.276,1467.538,1181.77,1468.396,1182.532,1467.368L1182.532,1467.368z"/>
			</g>
		</g>
	</g>
</g>
</svg>
